<?xml version="1.0" standalone="no"?><!DOCTYPE svg PUBLIC "-//W3C//DTD SVG 1.1//EN" "http://www.w3.org/Graphics/SVG/1.1/DTD/svg11.dtd"><svg t="1682695851523" class="icon" viewBox="0 0 1024 1024" version="1.1" xmlns="http://www.w3.org/2000/svg" p-id="21027" width="128" height="128" xmlns:xlink="http://www.w3.org/1999/xlink"><path d="M835.652267 872.209067a84.992 84.992 0 0 1-84.8896-84.8896 84.992 84.992 0 0 1 84.8896-84.923734 84.992 84.992 0 0 1 84.923733 84.923734 84.992 84.992 0 0 1-84.923733 84.8896m-331.537067-314.094934a138.1376 138.1376 0 0 1-137.9328-137.966933 138.1376 138.1376 0 0 1 137.9328-137.9328 138.1376 138.1376 0 0 1 137.966933 137.9328 138.1376 138.1376 0 0 1-137.966933 137.966933M69.3248 143.735467a91.579733 91.579733 0 0 1 91.477333-91.477334 91.579733 91.579733 0 0 1 91.477334 91.477334c0 34.167467-11.912533 91.477333-91.477334 91.477333a91.579733 91.579733 0 0 1-91.477333-91.477333M173.294933 971.776a104.072533 104.072533 0 0 1-103.970133-103.936 104.106667 104.106667 0 0 1 103.970133-104.004267 104.106667 104.106667 0 0 1 103.936 104.004267 104.072533 104.072533 0 0 1-103.936 103.936M860.808533 151.825067a84.992 84.992 0 0 1 84.923734 84.923733 84.992 84.992 0 0 1-84.923734 84.8896 84.992 84.992 0 0 1-84.923733-84.8896 84.992 84.992 0 0 1 84.923733-84.923733m-25.156266 498.312533c-26.350933 0-50.926933 7.611733-71.850667 20.548267l-106.7008-137.898667a189.0304 189.0304 0 0 0 37.239467-112.64 188.416 188.416 0 0 0-11.912534-65.570133l69.290667-35.089067a136.874667 136.874667 0 0 0 109.090133 54.408533 137.3184 137.3184 0 0 0 137.181867-137.147733 137.352533 137.352533 0 0 0-137.216-137.216 137.352533 137.352533 0 0 0-137.147733 137.216c0 12.424533 1.8432 24.405333 4.949333 35.874133l-70.792533 35.84a189.44 189.44 0 0 0-285.4912-25.122133L285.696 220.603733c13.1072-23.893333 18.8416-51.2 18.8416-76.868266A143.906133 143.906133 0 0 0 160.802133 0.034133 143.906133 143.906133 0 0 0 17.066667 143.701333a143.906133 143.906133 0 0 0 143.735466 143.735467c39.0144 0 68.7104-10.513067 90.760534-27.067733l88.405333 64.1024a188.962133 188.962133 0 0 0 35.566933 235.4176l-128.853333 170.018133a155.101867 155.101867 0 0 0-73.386667-18.397867A156.398933 156.398933 0 0 0 17.066667 867.805867 156.398933 156.398933 0 0 0 173.294933 1024a156.398933 156.398933 0 0 0 156.194134-156.194133 155.579733 155.579733 0 0 0-41.540267-105.813334l130.525867-172.202666a188.757333 188.757333 0 0 0 201.728-19.285334l105.028266 135.748267a136.362667 136.362667 0 0 0-26.7264 81.066667 137.3184 137.3184 0 0 0 137.147734 137.147733 137.3184 137.3184 0 0 0 137.216-137.147733 137.3184 137.3184 0 0 0-137.216-137.216" fill="#ffffff" p-id="21028" data-spm-anchor-id="a313x.7781069.0.i7" class="selected"></path></svg>